<svg xmlns="http://www.w3.org/2000/svg" xmlns:xlink="http://www.w3.org/1999/xlink" preserveAspectRatio="xMidYMid" width="26" height="20" viewBox="0 0 26 20">
  <defs>
    <style>
      .cls-1 {
        fill: #f9bc01;
        fill-rule: evenodd;
      }
    </style>
  </defs>
  <path d="M26.000,14.612 C26.000,17.586 23.537,19.997 20.500,19.997 C17.462,19.997 15.000,17.586 15.000,14.612 C15.000,14.485 15.010,14.362 15.019,14.237 C15.093,12.464 15.692,4.739 20.508,-0.003 L22.080,1.535 C22.080,1.535 19.166,4.521 18.957,9.446 C19.447,9.307 19.964,9.227 20.500,9.227 C23.537,9.227 26.000,11.639 26.000,14.612 ZM5.500,19.997 C2.462,19.997 -0.000,17.586 -0.000,14.612 C-0.000,14.485 0.010,14.362 0.019,14.237 C0.093,12.464 0.692,4.739 5.508,-0.003 L7.080,1.535 C7.080,1.535 4.166,4.521 3.957,9.446 C4.447,9.307 4.964,9.227 5.500,9.227 C8.537,9.227 11.000,11.639 11.000,14.612 C11.000,17.586 8.537,19.997 5.500,19.997 Z" class="cls-1"/>
</svg>
